<svg width="600" height="600" viewBox="0 0 600 600" fill="none" xmlns="http://www.w3.org/2000/svg">
<path d="M462.3 600H137.7C62.1 600 0 537.9 0 462.3V137.7C0 62.1 62.1 0 137.7 0H462C537.9 0 600 62.1 600 137.7V462C600 537.9 537.9 600 462.3 600Z" fill="url(#paint0_linear_544_656)"/>
<path d="M147 174C147 144.3 171.3 120 201 120H313.5C327.9 120 341.4 125.7 351.6 135.9L437.1 221.4C447.3 231.6 453 245.4 453 259.5V426C453 455.7 428.7 480 399 480H291C285.9 480 282 476.1 282 471V453C282 447.9 285.9 444 291 444H399C408.9 444 417 435.9 417 426V282C417 272.1 408.9 264 399 264H345C325.2 264 309 247.8 309 228V174C309 164.1 300.9 156 291 156H201C191.1 156 183 164.1 183 174V228C183 233.1 179.1 237 174 237H156C150.9 237 147 233.1 147 228V174ZM156 264C150.9 264 147 267.9 147 273V426C147 455.7 171.3 480 201 480H246C251.1 480 255 476.1 255 471V453C255 450.6 254.1 448.2 252.3 446.7C250.5 444.9 248.4 444 246 444H201C191.1 444 183 435.9 183 426V363H228C233.1 363 237 359.1 237 354V336C237 330.9 233.1 327 228 327H183V273C183 267.9 179.1 264 174 264H156Z" fill="white"/>
<defs>
<linearGradient id="paint0_linear_544_656" x1="40.4841" y1="559.516" x2="559.516" y2="40.4841" gradientUnits="userSpaceOnUse">
<stop stop-color="#0BB676"/>
<stop offset="1" stop-color="#2AEBA5"/>
</linearGradient>
</defs>
</svg>
